<svg id="Шар_1" data-name="Шар 1" xmlns="http://www.w3.org/2000/svg" viewBox="0 0 2006.98 803.62">
    <defs>
        <style>.cls-1{fill:#0f355d;}.cls-2{fill:#3569a1;}.cls-3{fill:#fa0;}.cls-4{fill:#95b8de;}</style>
    </defs>
    <title>_</title>
    <path class="cls-1"
          d="M686.2,269.81V387.46l63.45-125.14q5.72-11,12.78-13.66T786.22,246h11Q808.69,246,812,252t-2,16.08L743,401.12l61.69,122.49q8.81,17.19,8.81,26.88,0,12.78-20.27,12.78h-11q-11.89,0-20-4.63t-15.65-20.49L686.2,415.66V539.47q0,12.79-5.29,18.29t-17.62,5.51h-14.1q-12.35,0-17.63-5.51t-5.29-18.29V269.81q0-12.78,5.29-18.29t17.63-5.5h14.1q12.33,0,17.62,5.5T686.2,269.81Z"/>
    <path class="cls-1"
          d="M847.46,314.75q0-34.37,25.78-53.75t71.16-19.39q45.38,0,71.16,19.39t25.78,53.75V494.53q0,34.37-25.78,53.75T944.4,567.67q-45.39,0-71.16-19.39t-25.78-53.75Zm133.95,11.9q0-17.62-9-25.55t-28-7.94q-18.95,0-28,7.94t-9,25.55v156q0,17.63,9,25.56t28,7.93q18.95,0,28-7.93t9-25.56Z"/>
    <path class="cls-1"
          d="M1176.61,563.27H1111.4q-12.35,0-17.63-5.51t-5.29-18.29V269.81q0-12.78,5.29-18.29t17.63-5.5h64.77q55.07,0,79.75,26t24.68,77.11v111q0,54.19-24.24,78.65T1176.61,563.27Zm-.44-265.7h-27.76V511.71h28.2q47.58,0,47.59-54.63V352.21Q1224.2,297.58,1176.17,297.57Z"/>
    <path class="cls-1"
          d="M1448.91,547,1401.32,450h-14.54v89.44q0,12.79-5.29,18.29t-17.62,5.51h-14.1q-12.35,0-17.63-5.51t-5.29-18.29V269.81q0-12.78,5.29-18.29t17.63-5.5h58.16q50.67,0,73.14,22t22.48,64.33V371.6q0,54.18-44.51,70.94l48.47,92.53q4.41,8.37,4.41,15,0,13.22-19.83,13.22h-16.74Q1457.28,563.27,1448.91,547Zm-38.78-249.83h-23.35V398.91h22.47q34.37,0,34.37-37.45V335.9Q1443.62,297.14,1410.13,297.13Z"/>
    <path class="cls-1"
          d="M1543.2,314.75q0-34.37,25.77-53.75t71.16-19.39q45.38,0,71.16,19.39t25.78,53.75V494.53q0,34.37-25.78,53.75t-71.16,19.39q-45.39,0-71.16-19.39t-25.77-53.75Zm134,11.9q0-17.62-9-25.55t-28-7.94q-18.95,0-28,7.94t-9,25.55v156q0,17.63,9,25.56t28,7.93q18.94,0,28-7.93t9-25.56Z"/>
    <path class="cls-1"
          d="M1887.76,376.44l17.19,6.61q29.5,11.46,39.21,30t9.7,59.93v7.49q0,87.24-82.4,87.24h-19.39q-38.77,0-58.38-15.2t-19.61-49.13V483.07q0-20.7,19.39-20.71h19.39q18.93,0,18.94,19.83v3.09q0,17.18,5.29,24.45t17.19,7.27h15.42q25.54,0,25.55-33.05V467.21q0-26-25.11-34.37l-19-6.17q-44.51-13.65-58.82-32.16t-14.32-65.22v-8.37q0-38.76,20.71-59t58.6-20.27h7.05q41,0,61.25,17.41t20.27,46.92v21.15q0,20.27-19.39,20.27H1905q-16.76,0-16.75-17.62v-9.26q0-15.42-5.28-21.81t-17.19-6.39h-7q-12.35,0-17.18,6.83t-4.85,25.78v5.73q0,18.51,8.59,25.77T1887.76,376.44Z"/>
    <path class="cls-2"
          d="M295.64,685.26l-98.43-95.84a28,28,0,0,1,39.07-40.12l59.45,57.89,59.79-57.94a28,28,0,1,1,39,40.22Z"/>
    <path class="cls-3"
          d="M296,174.37c3.84,0,7.65.13,11.44.37a120.66,120.66,0,0,1,29.29-52.88A238.85,238.85,0,0,0,296,118.37c-131.33,0-238.16,106.83-238.16,238.15a238.35,238.35,0,0,0,80.64,178.62,28,28,0,0,0,37.06-42,182.32,182.32,0,0,1-61.7-136.63C113.88,256.08,195.59,174.37,296,174.37Z"/>
    <path class="cls-3"
          d="M473.55,315.56a182.33,182.33,0,0,1-57.06,177.59,28,28,0,0,0,37.06,42A238.16,238.16,0,0,0,520.9,278.07,121.42,121.42,0,0,1,473.55,315.56Z"/>
    <circle class="cls-2" cx="424.58" cy="204.98" r="81.78"/>
    <path class="cls-4" d="M388.11,359.92h-85V218.43q-46.65,87.85-93.28,175.72h86V535.64Z"/>
</svg>