<svg id="Шар_1" data-name="Шар 1" xmlns="http://www.w3.org/2000/svg" viewBox="0 0 1080 1080">
    <defs>
        <style>.cls-1{fill:#3569a1;}.cls-2{fill:#fa0;}.cls-3{fill:#95b8de;}</style>
    </defs>
    <title>_</title>
    <path class="cls-1"
          d="M539.46,937.73,404.23,806.05a38.47,38.47,0,1,1,53.67-55.12l81.69,79.53,82.14-79.6a38.47,38.47,0,1,1,53.54,55.26Z"/>
    <path class="cls-2"
          d="M540,235.8c5.28,0,10.52.18,15.72.51A165.92,165.92,0,0,1,596,163.67a327.69,327.69,0,0,0-56-4.81c-180.42,0-327.21,146.79-327.21,327.21a327.46,327.46,0,0,0,110.8,245.41,38.47,38.47,0,0,0,50.91-57.7,250.46,250.46,0,0,1-84.77-187.71C289.73,348.07,402,235.8,540,235.8Z"/>
    <path class="cls-2"
          d="M783.89,429.79a250.46,250.46,0,0,1-78.39,244,38.47,38.47,0,0,0,50.91,57.7A327.2,327.2,0,0,0,849,378.28,166.73,166.73,0,0,1,783.89,429.79Z"/>
    <circle class="cls-1" cx="716.61" cy="277.86" r="112.37"/>
    <path class="cls-3" d="M666.51,490.73H549.66V296.34L421.5,537.77H539.71V732.16Z"/>
</svg>